<svg width="25" height="24" viewBox="0 0 25 24" fill="none" xmlns="http://www.w3.org/2000/svg">
<g id="Component 1">
<path id="Vector" d="M21.7109 10.78V8C21.7109 6.35 20.3609 5 18.7109 5H14.7109C13.9409 5 13.2409 5.3 12.7109 5.78C12.1809 5.3 11.4809 5 10.7109 5H6.71094C5.06094 5 3.71094 6.35 3.71094 8V10.78C3.10094 11.33 2.71094 12.12 2.71094 13V19H4.71094V17H20.7109V19H22.7109V13C22.7109 12.12 22.3209 11.33 21.7109 10.78ZM14.7109 7H18.7109C19.2609 7 19.7109 7.45 19.7109 8V10H13.7109V8C13.7109 7.45 14.1609 7 14.7109 7ZM5.71094 8C5.71094 7.45 6.16094 7 6.71094 7H10.7109C11.2609 7 11.7109 7.45 11.7109 8V10H5.71094V8ZM4.71094 15V13C4.71094 12.45 5.16094 12 5.71094 12H19.7109C20.2609 12 20.7109 12.45 20.7109 13V15H4.71094Z" fill="#343533"/>
</g>
</svg>
