<svg width="22" height="37" viewBox="0 0 22 37" fill="none" xmlns="http://www.w3.org/2000/svg">
<path id="Vector" d="M11.3984 0.000292352C10.9063 0.000292352 10.4062 0.0338861 9.89844 0.0924799C7.19531 0.405761 4.83594 1.4667 3.17188 2.98779C1.5 4.50967 0.5 6.54717 0.75 8.70342C0.96875 10.6253 2.14062 12.2347 3.80469 13.344C4.00781 12.8597 4.26563 12.4144 4.52344 12.055C3.14844 11.1487 2.30469 9.92217 2.14844 8.53936C1.96875 7.00029 2.67187 5.44717 4.08594 4.15342C5.50781 2.85889 7.625 1.8831 10.0703 1.60029C12.5156 1.3167 14.8047 1.78232 16.4844 2.71748C18.1563 3.65342 19.1953 5.00732 19.375 6.53935C19.5469 8.04717 18.8906 9.5706 17.5469 10.8362C16.716 10.3171 15.7607 10.0311 14.7812 10.0081H14.6094C14.2109 10.0159 13.8203 10.0628 13.4141 10.1487C10.4844 10.8284 8.66406 13.7034 9.33594 16.6097C9.75 18.4065 11.0234 19.7815 12.6328 20.3987L15.7344 33.8519L19.4062 36.1253L21.7109 32.4769L19.875 31.344L21.0312 29.5159L19.1953 28.3753L20.3438 26.555L18.5078 25.4144L19.6641 23.5862L18.6094 19.0237C19.7891 17.7659 20.3281 15.969 19.9141 14.1644C19.7031 13.2503 19.2734 12.4456 18.6797 11.7894C20.1562 10.305 21.0078 8.39092 20.7734 6.3831C20.5234 4.23076 19.0859 2.47373 17.1094 1.37451C15.5078 0.47998 13.5313 -0.0137701 11.3984 0.000292352ZM9.82031 10.5862C7.79687 10.6722 5.92188 11.8987 5.10156 13.8831C4.39062 15.594 4.63281 17.4534 5.58594 18.8987L0.289062 31.6331L1.95312 35.6175L5.95312 33.9847L5.11719 31.9925L7.11719 31.18L6.28906 29.1878L8.28906 28.3753L7.45313 26.3831L9.45312 25.5628L11.2344 21.2815C9.63281 20.3831 8.40625 18.844 7.96094 16.9222C7.42188 14.555 8.20312 12.1878 9.82031 10.5862ZM14.3516 11.1487C15.0469 11.1409 15.7031 11.4222 16.1797 11.8831C15.75 12.1565 15.2734 12.3987 14.7734 12.6175C14.6484 12.5706 14.5156 12.555 14.375 12.555C14.3281 12.555 14.2891 12.555 14.25 12.5628C13.7031 12.6253 13.2969 13.0394 13.2266 13.555C13.2109 13.6331 13.2109 13.7112 13.2109 13.7815C13.2188 13.805 13.2188 13.8362 13.2188 13.8597C13.2969 14.5159 13.8672 14.969 14.5234 14.8909C15.0547 14.8284 15.4609 14.43 15.5391 13.93C16.0234 13.7112 16.4766 13.469 16.9062 13.1956C16.9219 13.2737 16.9375 13.3519 16.9453 13.43C17.1094 14.8362 16.0859 16.1253 14.6797 16.2894C13.2813 16.4534 11.9844 15.43 11.8281 14.0237C11.6641 12.6175 12.6875 11.3284 14.0938 11.1644C14.1797 11.1565 14.2656 11.1487 14.3516 11.1487Z" fill="#111827"/>
</svg>
